<?xml version="1.0" encoding="UTF-8" standalone="no"?>
<!-- Created with Inkscape (http://www.inkscape.org/) -->

<svg
   xmlns:dc="http://purl.org/dc/elements/1.1/"
   xmlns:cc="http://creativecommons.org/ns#"
   xmlns:rdf="http://www.w3.org/1999/02/22-rdf-syntax-ns#"
   xmlns:svg="http://www.w3.org/2000/svg"
   xmlns="http://www.w3.org/2000/svg"
   xmlns:sodipodi="http://sodipodi.sourceforge.net/DTD/sodipodi-0.dtd"
   xmlns:inkscape="http://www.inkscape.org/namespaces/inkscape"
   id="svg2"
   version="1.1"
   inkscape:version="0.48.3.1 r9886"
   width="1341"
   height="906"
   sodipodi:docname="MVC.png">
  <metadata
     id="metadata8">
    <rdf:RDF>
      <cc:Work
         rdf:about="">
        <dc:format>image/svg+xml</dc:format>
        <dc:type
           rdf:resource="http://purl.org/dc/dcmitype/StillImage" />
        <dc:title></dc:title>
      </cc:Work>
    </rdf:RDF>
  </metadata>
  <defs
     id="defs6">
    <marker
       inkscape:stockid="Arrow2Lend"
       orient="auto"
       refY="0"
       refX="0"
       id="Arrow2Lend"
       style="overflow:visible">
      <path
         inkscape:connector-curvature="0"
         id="path4662"
         style="fill-rule:evenodd;stroke-width:0.625;stroke-linejoin:round"
         d="M 8.7185878,4.0337352 -2.2072895,0.01601326 8.7185884,-4.0017078 c -1.7454984,2.3720609 -1.7354408,5.6174519 -6e-7,8.035443 z"
         transform="matrix(-1.1,0,0,-1.1,-1.1,0)" />
    </marker>
    <marker
       inkscape:stockid="Arrow2Lend"
       orient="auto"
       refY="0"
       refX="0"
       id="Arrow2Lend-0"
       style="overflow:visible">
      <path
         inkscape:connector-curvature="0"
         id="path4662-3"
         style="fill-rule:evenodd;stroke-width:0.625;stroke-linejoin:round"
         d="M 8.7185878,4.0337352 -2.2072895,0.01601326 8.7185884,-4.0017078 c -1.7454984,2.3720609 -1.7354408,5.6174519 -6e-7,8.035443 z"
         transform="matrix(-1.1,0,0,-1.1,-1.1,0)" />
    </marker>
    <marker
       inkscape:stockid="Arrow2Lend"
       orient="auto"
       refY="0"
       refX="0"
       id="Arrow2Lend-8"
       style="overflow:visible">
      <path
         inkscape:connector-curvature="0"
         id="path4662-34"
         style="fill-rule:evenodd;stroke-width:0.625;stroke-linejoin:round"
         d="M 8.7185878,4.0337352 -2.2072895,0.01601326 8.7185884,-4.0017078 c -1.7454984,2.3720609 -1.7354408,5.6174519 -6e-7,8.035443 z"
         transform="matrix(-1.1,0,0,-1.1,-1.1,0)" />
    </marker>
  </defs>
  <sodipodi:namedview
     pagecolor="#ffffff"
     bordercolor="#666666"
     borderopacity="1"
     objecttolerance="10"
     gridtolerance="10"
     guidetolerance="10"
     inkscape:pageopacity="0"
     inkscape:pageshadow="2"
     inkscape:window-width="1855"
     inkscape:window-height="1056"
     id="namedview4"
     showgrid="false"
     inkscape:zoom="0.5209713"
     inkscape:cx="514.96939"
     inkscape:cy="453.46996"
     inkscape:window-x="65"
     inkscape:window-y="24"
     inkscape:window-maximized="1"
     inkscape:current-layer="svg2" />
  <path
     sodipodi:type="inkscape:offset"
     inkscape:radius="131.33159"
     inkscape:original="M 791.5 157.78125 C 759.04733 157.78125 727.07377 163.28035 689.75 185.46875 C 652.42623 207.65715 597.25 262.89681 597.25 346.9375 L 597.25 629.40625 C 597.25 713.44694 652.42623 768.6866 689.75 790.875 C 727.07377 813.0634 759.04733 818.5625 791.5 818.5625 L 1141.5625 818.5625 C 1174.0153 818.5625 1205.9889 813.06326 1243.3125 790.875 C 1280.6361 768.68674 1335.8125 713.44752 1335.8125 629.40625 L 1335.8125 346.9375 C 1335.8125 262.89623 1280.6361 207.65701 1243.3125 185.46875 C 1205.9889 163.28049 1174.0153 157.78125 1141.5625 157.78125 L 791.5 157.78125 z "
     style="fill:#979797;fill-opacity:1;stroke:#676767;stroke-width:23.46712494;stroke-linecap:butt;stroke-linejoin:round;stroke-miterlimit:3.70000005;stroke-opacity:1;stroke-dasharray:none;stroke-dashoffset:0.64039998"
     id="path3787"
     d="m 791.5,26.4375 c -47.28875,0 -111.42509,12.003171 -168.875,46.15625 -70.75378,42.06202 -156.71875,132.81994 -156.71875,274.34375 l 0,282.46875 c 0,141.52381 85.96497,232.28173 156.71875,274.34375 57.44991,34.15308 121.58625,46.15625 168.875,46.15625 l 350.0625,0 c 47.2892,0 111.4254,-12.00339 168.875,-46.15625 70.7531,-42.06154 156.7187,-132.81958 156.7187,-274.34375 l 0,-282.46875 c 0,-141.52417 -85.9656,-232.28221 -156.7187,-274.34375 C 1252.9879,38.440894 1188.8517,26.4375 1141.5625,26.4375 l -350.0625,0 z"
     transform="matrix(0.28191665,0,0,0.25170769,378.69227,130.49627)" />
  <text
     xml:space="preserve"
     style="font-size:58.30205154px;font-style:normal;font-weight:normal;line-height:125%;letter-spacing:0px;word-spacing:0px;fill:#000000;fill-opacity:1;stroke:none;font-family:Sans"
     x="576.7807"
     y="275.0347"
     id="text3777"
     sodipodi:linespacing="125%"><tspan
       sodipodi:role="line"
       id="tspan3779"
       x="576.7807"
       y="275.0347"
       style="fill:#ffffff">Vista</tspan></text>
  <path
     sodipodi:type="inkscape:offset"
     inkscape:radius="131.33159"
     inkscape:original="M 791.5 157.78125 C 759.04733 157.78125 727.07377 163.28035 689.75 185.46875 C 652.42623 207.65715 597.25 262.89681 597.25 346.9375 L 597.25 629.40625 C 597.25 713.44694 652.42623 768.6866 689.75 790.875 C 727.07377 813.0634 759.04733 818.5625 791.5 818.5625 L 1141.5625 818.5625 C 1174.0153 818.5625 1205.9889 813.06326 1243.3125 790.875 C 1280.6361 768.68674 1335.8125 713.44752 1335.8125 629.40625 L 1335.8125 346.9375 C 1335.8125 262.89623 1280.6361 207.65701 1243.3125 185.46875 C 1205.9889 163.28049 1174.0153 157.78125 1141.5625 157.78125 L 791.5 157.78125 z "
     style="fill:#979797;fill-opacity:1;stroke:#676767;stroke-width:23.46712494;stroke-linecap:butt;stroke-linejoin:round;stroke-miterlimit:3.70000005;stroke-opacity:1;stroke-dasharray:none;stroke-dashoffset:0.64039998"
     id="path3787-9"
     d="m 791.5,26.4375 c -47.28875,0 -111.42509,12.003171 -168.875,46.15625 -70.75378,42.06202 -156.71875,132.81994 -156.71875,274.34375 l 0,282.46875 c 0,141.52381 85.96497,232.28173 156.71875,274.34375 57.44991,34.15308 121.58625,46.15625 168.875,46.15625 l 350.0625,0 c 47.2892,0 111.4254,-12.00339 168.875,-46.15625 70.7531,-42.06154 156.7187,-132.81958 156.7187,-274.34375 l 0,-282.46875 c 0,-141.52417 -85.9656,-232.28221 -156.7187,-274.34375 C 1252.9879,38.440894 1188.8517,26.4375 1141.5625,26.4375 l -350.0625,0 z"
     transform="matrix(0.28191665,0,0,0.25170769,-22.947347,581.57677)" />
  <text
     xml:space="preserve"
     style="font-size:42.16251373px;font-style:normal;font-weight:normal;line-height:125%;letter-spacing:0px;word-spacing:0px;fill:#000000;fill-opacity:1;stroke:none;font-family:Sans"
     x="131.95267"
     y="697.82159"
     id="text3777-5"
     sodipodi:linespacing="125%"
     transform="scale(0.97102008,1.0298448)"><tspan
       sodipodi:role="line"
       id="tspan3779-2"
       x="131.95267"
       y="697.82159"
       style="fill:#ffffff">Controlador</tspan></text>
  <path
     sodipodi:type="inkscape:offset"
     inkscape:radius="131.33159"
     inkscape:original="M 791.5 157.78125 C 759.04733 157.78125 727.07377 163.28035 689.75 185.46875 C 652.42623 207.65715 597.25 262.89681 597.25 346.9375 L 597.25 629.40625 C 597.25 713.44694 652.42623 768.6866 689.75 790.875 C 727.07377 813.0634 759.04733 818.5625 791.5 818.5625 L 1141.5625 818.5625 C 1174.0153 818.5625 1205.9889 813.06326 1243.3125 790.875 C 1280.6361 768.68674 1335.8125 713.44752 1335.8125 629.40625 L 1335.8125 346.9375 C 1335.8125 262.89623 1280.6361 207.65701 1243.3125 185.46875 C 1205.9889 163.28049 1174.0153 157.78125 1141.5625 157.78125 L 791.5 157.78125 z "
     style="fill:#979797;fill-opacity:1;stroke:#676767;stroke-width:23.46712494;stroke-linecap:butt;stroke-linejoin:round;stroke-miterlimit:3.70000005;stroke-opacity:1;stroke-dasharray:none;stroke-dashoffset:0.64039998"
     id="path3787-1"
     d="m 791.5,26.4375 c -47.28875,0 -111.42509,12.003171 -168.875,46.15625 -70.75378,42.06202 -156.71875,132.81994 -156.71875,274.34375 l 0,282.46875 c 0,141.52381 85.96497,232.28173 156.71875,274.34375 57.44991,34.15308 121.58625,46.15625 168.875,46.15625 l 350.0625,0 c 47.2892,0 111.4254,-12.00339 168.875,-46.15625 70.7531,-42.06154 156.7187,-132.81958 156.7187,-274.34375 l 0,-282.46875 c 0,-141.52417 -85.9656,-232.28221 -156.7187,-274.34375 C 1252.9879,38.440894 1188.8517,26.4375 1141.5625,26.4375 l -350.0625,0 z"
     transform="matrix(0.28191665,0,0,0.25170769,798.59503,579.65729)" />
  <text
     xml:space="preserve"
     style="font-size:58.30205154px;font-style:normal;font-weight:normal;line-height:125%;letter-spacing:0px;word-spacing:0px;fill:#000000;fill-opacity:1;stroke:none;font-family:Sans"
     x="967.89111"
     y="722.27618"
     id="text3777-1"
     sodipodi:linespacing="125%"><tspan
       sodipodi:role="line"
       id="tspan3779-0"
       x="967.89111"
       y="722.27618"
       style="fill:#ffffff">Modelo</tspan></text>
  <path
     style="fill:none;stroke:#000000;stroke-width:3.15272737;stroke-linecap:butt;stroke-linejoin:miter;stroke-miterlimit:2.70000005;stroke-opacity:1;stroke-dasharray:none;marker-end:url(#Arrow2Lend)"
     d="M 504.24357,240.84041 C 390.19161,246.53796 245.31422,387.71386 244.97659,581.93705"
     id="path4635-2-9-2-6-1-4-3-2-1-5"
     inkscape:connector-curvature="0"
     sodipodi:nodetypes="cc" />
  <path
     style="fill:none;stroke:#000000;stroke-width:3.15272737;stroke-linecap:butt;stroke-linejoin:miter;stroke-miterlimit:2.70000005;stroke-opacity:1;stroke-dasharray:none;marker-end:url(#Arrow2Lend)"
     d="M 1075.8231,582.99649 C 1070.1255,468.94453 988.45387,247.28749 794.23066,246.94986"
     id="path4635-2-9-2-6-1-4-3-2-1-5-6"
     inkscape:connector-curvature="0"
     sodipodi:nodetypes="cc" />
  <path
     style="fill:none;stroke:#000000;stroke-width:3.17946553;stroke-linecap:butt;stroke-linejoin:miter;stroke-miterlimit:2.70000005;stroke-opacity:1;stroke-dasharray:none;marker-end:url(#Arrow2Lend)"
     d="m 398.23534,699.12571 c 472.36758,3.03703 330.92877,0.20203 528.46031,-0.1356"
     id="path4635-2-9-2-6-1-4-3-2-1-5-6-3"
     inkscape:connector-curvature="0"
     sodipodi:nodetypes="cc" />
  <text
     xml:space="preserve"
     style="font-size:40px;font-style:normal;font-weight:normal;line-height:125%;letter-spacing:0px;word-spacing:0px;fill:#000000;fill-opacity:1;stroke:none;font-family:Sans"
     x="508.66528"
     y="760.11865"
     id="text3092"
     sodipodi:linespacing="125%"><tspan
       sodipodi:role="line"
       id="tspan3094"
       x="508.66528"
       y="760.11865">manipulaciones</tspan></text>
  <text
     xml:space="preserve"
     style="font-size:40px;font-style:normal;font-weight:normal;line-height:125%;letter-spacing:0px;word-spacing:0px;fill:#000000;fill-opacity:1;stroke:none;font-family:Sans"
     x="1062.5447"
     y="350.78516"
     id="text3092-4"
     sodipodi:linespacing="125%"><tspan
       sodipodi:role="line"
       id="tspan3094-9"
       x="1062.5447"
       y="350.78516">dispara</tspan><tspan
       sodipodi:role="line"
       x="1062.5447"
       y="400.78516"
       id="tspan3117">eventos</tspan></text>
  <text
     xml:space="preserve"
     style="font-size:40px;font-style:normal;font-weight:normal;text-align:center;line-height:125%;letter-spacing:0px;word-spacing:0px;text-anchor:middle;fill:#000000;fill-opacity:1;stroke:none;font-family:Sans"
     x="174.9352"
     y="354.61548"
     id="text3092-4-1"
     sodipodi:linespacing="125%"><tspan
       sodipodi:role="line"
       id="tspan3094-9-5"
       x="174.9352"
       y="354.61548">pasa</tspan><tspan
       sodipodi:role="line"
       x="174.9352"
       y="404.61548"
       id="tspan3117-6">llamadas</tspan></text>
</svg>
